                Graphic Sexual Horror 2009 DVDRip Xvid LKRG


RIPPER                           : fasamoo
Format                           : AVI
Format/Info                      : Audio Video Interleave
File size                        : 700 MiB
Duration                         : 1h 26mn
Overall bit rate                 : 1 134 Kbps
Writing application              : VirtualDubMod 1.5.4.1 (build 2178/release)
Writing library                  : VirtualDubMod build 2178/release
Language                         : English
Subtitles                        : None
Genre                            : Documentary

Video
ID                               : 0
Format                           : MPEG-4 Visual
Format profile                   : Advanced Simple@L5
Format settings, BVOP            : Yes
Format settings, QPel            : No
Format settings, GMC             : No warppoints
Format settings, Matrix          : Custom
Codec ID                         : XVID
Codec ID/Hint                    : XviD
Duration                         : 1h 26mn
Bit rate                         : 1 037 Kbps
Width                            : 720 pixels
Height                           : 400 pixels
Display aspect ratio             : 16:9
Frame rate                       : 25.000 fps
Color space                      : YUV
Chroma subsampling               : 4:2:0
Bit depth                        : 8 bits
Scan type                        : Progressive
Bits/(Pixel*Frame)               : 0.144
Stream size                      : 640 MiB (91%)
Writing library                  : XviD 1.2.1 (UTC 2008-12-04)

Audio
ID                               : 1
Format                           : MPEG Audio
Format version                   : Version 1
Format profile                   : Layer 3
Mode                             : Joint stereo
Mode extension                   : MS Stereo
Codec ID                         : 55
Codec ID/Hint                    : MP3
Duration                         : 1h 26mn
Bit rate mode                    : Variable
Bit rate                         : 84.3 Kbps
Nominal bit rate                 : 128 Kbps
Channel(s)                       : 2 channels
Sampling rate                    : 48.0 KHz
Stream size                      : 52.0 MiB (7%)
Alignment                        : Aligned on interleaves
Interleave, duration             : 24 ms (0.60 video frame)
Interleave, preload duration     : 218 ms
Writing library                  : LAME3.98r
Encoding settings                : -m j -V 4 -q 2 -lowpass 17 --abr 128


                                 PLOT

Graphic Sexual Horror takes a peek behind the terrifying facade behind the most notorious of bondage websites, exploring the dark mind of its artistic creator and asking hard questions about personal responsibility. Interviews reveal deep fascinations with bondage and sadomasochism that run parallel, and in fact become irreversibly entwined with the lure of money.

  







                                 IMBD
                     
                    http://www.imdb.com/title/tt1326224/
 
http://leetleech.org/images/02002298174506945606.png 
http://leetleech.org/images/36566466738672218167.png 
http://leetleech.org/images/93550544727793451646.png 
http://leetleech.org/images/19404237879432618056.png 
http://leetleech.org/images/48918019917857949960.png 
http://leetleech.org/images/95187924250103232309.png 
http://leetleech.org/images/77569005163869592862.png


